# xmcd
#
# Track frame offsets:
#	150
#	16235
#	29380
#	47565
#	65002
#	81170
#	95960
#	109825
#	124522
#	136912
#	150187
#	167670
#	181507
#	193585
#	210095
#	227792
#	237153
#	252366
#	273954
#	300546
#	326871
#
# Disc length: 4588 seconds
#
# Revision: 2
# Processed by: cddbd v1.5.2PL0 Copyright (c) Steve Scherf et al.
# Submitted via: EZCDAudioConverter 1.3.4.1
#
DISCID=0f11ea15
DTITLE=Los Lobos - Kiko
DYEAR=2012
DGENRE=
TTITLE0=Dream In Blue
TTITLE1=Wake Up Dolores
TTITLE2=Angels With Dirty Faces
TTITLE3=That Train Don't Stop Here
TTITLE4=Kiko And The Lavender Moon
TTITLE5=Saint Behind The Glass
TTITLE6=Reva's House
TTITLE7=When The Circus Comes
TTITLE8=Arizona Skies
TTITLE9=Short Side Of Nothing
TTITLE10=Two Janes
TTITLE11=Wicked Rain
TTITLE12=Whiskey Trail
TTITLE13=Just A Man
TTITLE14=Peace
TTITLE15=Rio De Tenampa
TTITLE16=Whiskey Trail [Demo]
TTITLE17=Rio De Tenampa [Demo]
TTITLE18=Peace [Live]
TTITLE19=Arizona Skies - Borinquen Patria Mia [Live]
TTITLE20=Kiko And The Lavender Moon [Live]
EXTD=
EXTT0=
EXTT1=
EXTT2=
EXTT3=
EXTT4=
EXTT5=
EXTT6=
EXTT7=
EXTT8=
EXTT9=
EXTT10=
EXTT11=
EXTT12=
EXTT13=
EXTT14=
EXTT15=
EXTT16=
EXTT17=
EXTT18=
EXTT19=
EXTT20=
PLAYORDER=
